<svg width="180" height="45" viewBox="0 0 180 45" fill="none" xmlns="http://www.w3.org/2000/svg">
<path d="M127.764 40.432H129.724V35.287C129.724 35.035 129.731 34.7713 129.745 34.496L128.59 35.455C128.515 35.5157 128.441 35.56 128.366 35.588C128.291 35.6113 128.219 35.623 128.149 35.623C128.028 35.623 127.918 35.5973 127.82 35.546C127.727 35.49 127.657 35.4317 127.61 35.371L126.924 34.461L130.102 31.794H131.894V40.432H133.574V42H127.764V40.432ZM140.961 36.897C140.961 37.7883 140.865 38.5607 140.674 39.214C140.483 39.8673 140.217 40.4087 139.876 40.838C139.54 41.2673 139.139 41.587 138.672 41.797C138.21 42.007 137.708 42.112 137.167 42.112C136.626 42.112 136.124 42.007 135.662 41.797C135.205 41.587 134.808 41.2673 134.472 40.838C134.136 40.4087 133.872 39.8673 133.681 39.214C133.494 38.5607 133.401 37.7883 133.401 36.897C133.401 36.0057 133.494 35.2333 133.681 34.58C133.872 33.9267 134.136 33.3853 134.472 32.956C134.808 32.5267 135.205 32.2093 135.662 32.004C136.124 31.794 136.626 31.689 137.167 31.689C137.708 31.689 138.21 31.794 138.672 32.004C139.139 32.2093 139.54 32.5267 139.876 32.956C140.217 33.3853 140.483 33.9267 140.674 34.58C140.865 35.2333 140.961 36.0057 140.961 36.897ZM138.721 36.897C138.721 36.1923 138.677 35.616 138.588 35.168C138.499 34.7153 138.38 34.3607 138.231 34.104C138.086 33.8473 137.921 33.6723 137.734 33.579C137.547 33.481 137.358 33.432 137.167 33.432C136.976 33.432 136.787 33.481 136.6 33.579C136.418 33.6723 136.255 33.8473 136.11 34.104C135.97 34.3607 135.856 34.7153 135.767 35.168C135.683 35.616 135.641 36.1923 135.641 36.897C135.641 37.6063 135.683 38.185 135.767 38.633C135.856 39.081 135.97 39.4357 136.11 39.697C136.255 39.9537 136.418 40.131 136.6 40.229C136.787 40.3223 136.976 40.369 137.167 40.369C137.358 40.369 137.547 40.3223 137.734 40.229C137.921 40.131 138.086 39.9537 138.231 39.697C138.38 39.4357 138.499 39.081 138.588 38.633C138.677 38.185 138.721 37.6063 138.721 36.897ZM152.281 42H150.447C150.242 42 150.072 41.9533 149.936 41.86C149.806 41.762 149.715 41.6383 149.663 41.489L149.061 39.711H145.183L144.581 41.489C144.535 41.6197 144.444 41.7387 144.308 41.846C144.173 41.9487 144.007 42 143.811 42H141.963L145.911 31.801H148.333L152.281 42ZM145.729 38.101H148.515L147.577 35.308C147.517 35.1307 147.444 34.923 147.36 34.685C147.281 34.4423 147.202 34.181 147.122 33.901C147.048 34.1857 146.971 34.4493 146.891 34.692C146.812 34.9347 146.737 35.1447 146.667 35.322L145.729 38.101ZM153.357 31.801C153.46 31.801 153.546 31.8057 153.616 31.815C153.686 31.8243 153.749 31.843 153.805 31.871C153.861 31.8943 153.915 31.9293 153.966 31.976C154.018 32.0227 154.076 32.0857 154.141 32.165L158.985 38.29C158.967 38.094 158.953 37.905 158.943 37.723C158.934 37.5363 158.929 37.3613 158.929 37.198V31.801H161.015V42H159.783C159.601 42 159.447 41.972 159.321 41.916C159.195 41.86 159.074 41.7573 158.957 41.608L154.148 35.532C154.162 35.7093 154.174 35.8843 154.183 36.057C154.193 36.225 154.197 36.3837 154.197 36.533V42H152.111V31.801H153.357ZM171.76 36.897C171.76 37.6343 171.631 38.3203 171.375 38.955C171.123 39.5897 170.766 40.1427 170.304 40.614C169.842 41.0807 169.284 41.447 168.631 41.713C167.982 41.979 167.261 42.112 166.468 42.112C165.674 42.112 164.951 41.979 164.298 41.713C163.644 41.447 163.084 41.0807 162.618 40.614C162.156 40.1427 161.796 39.5897 161.54 38.955C161.288 38.3203 161.162 37.6343 161.162 36.897C161.162 36.1597 161.288 35.4737 161.54 34.839C161.796 34.2043 162.156 33.6537 162.618 33.187C163.084 32.7203 163.644 32.354 164.298 32.088C164.951 31.822 165.674 31.689 166.468 31.689C167.261 31.689 167.982 31.8243 168.631 32.095C169.284 32.361 169.842 32.7273 170.304 33.194C170.766 33.6607 171.123 34.2113 171.375 34.846C171.631 35.4807 171.76 36.1643 171.76 36.897ZM169.338 36.897C169.338 36.393 169.272 35.9403 169.142 35.539C169.011 35.133 168.822 34.79 168.575 34.51C168.332 34.23 168.033 34.0153 167.679 33.866C167.324 33.7167 166.92 33.642 166.468 33.642C166.01 33.642 165.602 33.7167 165.243 33.866C164.888 34.0153 164.587 34.23 164.34 34.51C164.097 34.79 163.91 35.133 163.78 35.539C163.649 35.9403 163.584 36.393 163.584 36.897C163.584 37.4057 163.649 37.863 163.78 38.269C163.91 38.6703 164.097 39.011 164.34 39.291C164.587 39.571 164.888 39.7857 165.243 39.935C165.602 40.0797 166.01 40.152 166.468 40.152C166.92 40.152 167.324 40.0797 167.679 39.935C168.033 39.7857 168.332 39.571 168.575 39.291C168.822 39.011 169.011 38.6703 169.142 38.269C169.272 37.863 169.338 37.4057 169.338 36.897ZM177.575 33.873C177.505 33.985 177.43 34.069 177.351 34.125C177.276 34.181 177.178 34.209 177.057 34.209C176.949 34.209 176.833 34.1763 176.707 34.111C176.585 34.041 176.445 33.964 176.287 33.88C176.133 33.796 175.955 33.7213 175.755 33.656C175.554 33.586 175.325 33.551 175.069 33.551C174.625 33.551 174.294 33.6467 174.075 33.838C173.86 34.0247 173.753 34.279 173.753 34.601C173.753 34.8063 173.818 34.9767 173.949 35.112C174.079 35.2473 174.25 35.364 174.46 35.462C174.674 35.56 174.917 35.651 175.188 35.735C175.463 35.8143 175.743 35.9053 176.028 36.008C176.312 36.106 176.59 36.2227 176.861 36.358C177.136 36.4933 177.379 36.666 177.589 36.876C177.803 37.086 177.976 37.3427 178.107 37.646C178.237 37.9447 178.303 38.3063 178.303 38.731C178.303 39.2023 178.221 39.6433 178.058 40.054C177.894 40.4647 177.656 40.824 177.344 41.132C177.036 41.4353 176.653 41.6757 176.196 41.853C175.743 42.0257 175.227 42.112 174.649 42.112C174.331 42.112 174.007 42.0793 173.676 42.014C173.349 41.9487 173.032 41.8577 172.724 41.741C172.416 41.6197 172.126 41.4773 171.856 41.314C171.585 41.1507 171.349 40.9687 171.149 40.768L171.849 39.662C171.9 39.578 171.972 39.5103 172.066 39.459C172.159 39.4077 172.259 39.382 172.367 39.382C172.507 39.382 172.647 39.4263 172.787 39.515C172.931 39.6037 173.092 39.7017 173.27 39.809C173.452 39.9163 173.659 40.0143 173.893 40.103C174.126 40.1917 174.401 40.236 174.719 40.236C175.148 40.236 175.482 40.1427 175.72 39.956C175.958 39.7647 176.077 39.4637 176.077 39.053C176.077 38.815 176.011 38.6213 175.881 38.472C175.75 38.3227 175.577 38.199 175.363 38.101C175.153 38.003 174.912 37.9167 174.642 37.842C174.371 37.7673 174.093 37.6857 173.809 37.597C173.524 37.5037 173.246 37.3917 172.976 37.261C172.705 37.1257 172.462 36.9507 172.248 36.736C172.038 36.5167 171.867 36.246 171.737 35.924C171.606 35.5973 171.541 35.196 171.541 34.72C171.541 34.3373 171.618 33.964 171.772 33.6C171.926 33.236 172.152 32.9117 172.451 32.627C172.749 32.3423 173.116 32.116 173.55 31.948C173.984 31.7753 174.481 31.689 175.041 31.689C175.353 31.689 175.657 31.7147 175.951 31.766C176.249 31.8127 176.532 31.885 176.798 31.983C177.064 32.0763 177.311 32.1907 177.54 32.326C177.773 32.4567 177.981 32.606 178.163 32.774L177.575 33.873Z" fill="#002868"/>
<path d="M15.78 20.9907C16.05 21.5754 16.29 22.1601 16.47 22.7741C16.65 23.388 16.77 24.002 16.86 24.616C15.75 25.0253 14.76 25.2591 13.86 25.4053C12.96 25.5223 12.03 25.5807 11.01 25.5807C9.20999 25.5807 7.62 25.2884 6.24 24.7329C4.86 24.1774 3.72 23.388 2.79 22.3648C1.86 21.3415 1.17 20.1136 0.69 18.681C0.24 17.2777 0 15.7282 0 14.091C0 12.4245 0.24 10.875 0.75 9.47171C1.23 8.03915 1.95 6.81124 2.88 5.78798C3.78 4.70625 4.92 3.88764 6.3 3.33216C7.64999 2.74744 9.20999 2.45508 10.92 2.45508C11.94 2.45508 12.9 2.51355 13.74 2.63049C14.61 2.74744 15.54 3.01056 16.53 3.41987C16.5 4.03382 16.38 4.64778 16.17 5.2325C15.96 5.81722 15.72 6.43117 15.45 7.01589C14.7 6.782 14.04 6.60659 13.47 6.48964C12.9 6.40194 12.21 6.34346 11.43 6.34346C9.38999 6.34346 7.79999 6.98666 6.72 8.30227C5.61 9.58866 5.07 11.5182 5.07 14.091C5.07 19.1781 7.29 21.6924 11.7 21.6924C12.48 21.6924 13.17 21.6339 13.77 21.5462C14.37 21.4292 15.03 21.2538 15.78 20.9907Z" fill="#002868"/>
<path d="M33.4803 12.8341C33.1203 11.7231 32.6103 10.7291 31.8903 9.91048C31.1703 9.09187 30.2703 8.44868 29.1903 7.9809C28.1103 7.48389 26.8203 7.25 25.3803 7.25C23.9403 7.25 22.6503 7.48389 21.6003 7.95166C20.5203 8.44868 19.6203 9.09187 18.9303 9.91048C18.2103 10.7291 17.7003 11.6939 17.3403 12.8341C16.9803 13.945 16.8003 15.1437 16.8003 16.4301C16.8003 17.7165 16.9803 18.9152 17.3403 19.9969C17.7003 21.1079 18.2403 22.0726 18.9303 22.8913C19.6203 23.7099 20.5203 24.3531 21.6003 24.8208C22.6803 25.2886 23.9403 25.5225 25.3803 25.5225C26.8203 25.5225 28.1103 25.2886 29.1903 24.8208C30.2703 24.3531 31.1703 23.7099 31.8903 22.8913C32.6103 22.0726 33.1503 21.1079 33.4803 19.9969C33.8403 18.8859 33.9903 17.6872 33.9903 16.4301C33.9903 15.1437 33.8403 13.945 33.4803 12.8341ZM28.1703 20.4647C27.6003 21.4002 26.6703 21.868 25.3803 21.868C24.1203 21.868 23.1903 21.4002 22.6203 20.4647C22.0503 19.5291 21.7803 18.1843 21.7803 16.4301C21.7803 14.6759 22.0503 13.3311 22.6203 12.3955C23.1903 11.46 24.0903 10.9922 25.3803 10.9922C26.6703 10.9922 27.6003 11.46 28.1703 12.3955C28.7403 13.3311 29.0103 14.6759 29.0103 16.4301C29.0103 18.1843 28.7403 19.5291 28.1703 20.4647Z" fill="#002868"/>
<path d="M36.3003 7.6593C36.6303 7.60083 36.9603 7.54236 37.2603 7.51312C37.5903 7.48389 37.9503 7.45465 38.3403 7.45465C38.7303 7.45465 39.0903 7.48389 39.3903 7.51312C39.6903 7.54236 39.9903 7.60083 40.3203 7.6593C40.3803 7.77625 40.4403 7.92243 40.5003 8.15632C40.5603 8.36097 40.6203 8.59485 40.6503 8.82874C40.7103 9.06263 40.7403 9.29652 40.7703 9.53041C40.8003 9.76429 40.8303 9.93971 40.8603 10.1151C41.1003 9.76429 41.3703 9.4427 41.7003 9.09187C42.0303 8.74103 42.3903 8.44868 42.8403 8.18555C43.2603 7.92243 43.7403 7.68854 44.2803 7.51312C44.8203 7.33771 45.3903 7.25 46.0503 7.25C48.0903 7.25 49.6203 7.77625 50.6403 8.85798C51.6603 9.93971 52.1703 11.6354 52.1703 13.945V25.0839C51.3303 25.2301 50.5203 25.2886 49.7103 25.2886C48.9003 25.2886 48.0903 25.2301 47.2503 25.0839V15.2607C47.2503 14.0327 47.0703 13.1264 46.6803 12.454C46.2903 11.8108 45.6303 11.4892 44.7003 11.4892C44.3103 11.4892 43.8903 11.5477 43.5003 11.6646C43.0803 11.7816 42.7203 11.9862 42.3603 12.3371C42.0303 12.6587 41.7603 13.1264 41.5503 13.7112C41.3403 14.2959 41.2503 15.056 41.2503 15.9916V25.1424C40.4103 25.2886 39.6003 25.3471 38.7903 25.3471C37.9803 25.3471 37.1703 25.2886 36.3303 25.1424V7.6593H36.3003Z" fill="#002868"/>
<path d="M55.5898 10.8463H53.2498L53.0698 10.1446L59.7898 1.75391H60.6298V7.04562H64.9798C65.0398 7.39645 65.0998 7.71805 65.1298 7.98117C65.1598 8.27353 65.1598 8.56589 65.1598 8.85825C65.1598 9.17985 65.1598 9.50144 65.1298 9.7938C65.0998 10.0862 65.0698 10.437 64.9798 10.8171H60.6298V17.9214C60.6298 18.6523 60.6898 19.237 60.8098 19.6756C60.9298 20.1141 61.1098 20.4649 61.3198 20.7281C61.5598 20.9912 61.8298 21.1666 62.1598 21.2543C62.4898 21.342 62.8798 21.4005 63.3598 21.4005C63.7198 21.4005 64.0798 21.3713 64.4098 21.3128C64.7698 21.2543 65.0698 21.1958 65.3398 21.1666C65.5198 21.6051 65.6398 22.0729 65.6998 22.5407C65.7598 23.0085 65.8198 23.447 65.8198 23.8271C65.8198 24.0902 65.8198 24.2949 65.7898 24.4703C65.7898 24.6457 65.7598 24.8211 65.7298 24.9673C64.6198 25.2304 63.4798 25.3473 62.3098 25.3473C60.1198 25.3473 58.4698 24.8503 57.2998 23.8563C56.1598 22.8623 55.5598 21.2543 55.5598 19.0031V10.8463H55.5898Z" fill="#002868"/>
<path d="M76.2002 13.6235C76.2002 13.0973 76.1102 12.6587 75.9302 12.3079C75.7502 11.9571 75.4802 11.6939 75.1802 11.5185C74.8502 11.3139 74.4602 11.1969 73.9802 11.1384C73.5002 11.08 72.9902 11.0507 72.3902 11.0507C71.1302 11.0507 69.8102 11.2846 68.4002 11.7524C68.0702 11.1677 67.8302 10.6122 67.6802 10.0859C67.5302 9.5597 67.4402 8.94575 67.4402 8.24408C68.4602 7.89325 69.4802 7.65936 70.5002 7.51318C71.5202 7.367 72.4502 7.2793 73.3502 7.2793C75.7502 7.2793 77.6402 7.83478 78.9902 8.97498C80.3402 10.0859 81.0302 11.8986 81.0302 14.3836V24.4993C80.2202 24.7332 79.2302 24.9963 78.0902 25.2009C76.9502 25.4348 75.6302 25.5518 74.1902 25.5518C73.0202 25.5518 71.9402 25.4641 70.9502 25.2594C69.9602 25.0548 69.1202 24.7332 68.4302 24.2362C67.7402 23.7684 67.1702 23.1544 66.8102 22.4235C66.4202 21.6926 66.2402 20.7571 66.2402 19.6753C66.2402 18.5936 66.4802 17.6873 66.9602 16.9564C67.4402 16.2255 68.0402 15.6408 68.7902 15.2022C69.5402 14.7637 70.3802 14.4421 71.3102 14.2667C72.2402 14.062 73.1702 13.9743 74.0702 13.9743C74.7302 13.9743 75.4802 14.0036 76.2902 14.062V13.6235H76.2002ZM76.2002 17.1026C75.9302 17.0441 75.6302 17.0149 75.3002 16.9856C74.9702 16.9564 74.7002 16.9272 74.4302 16.9272C73.2902 16.9272 72.3902 17.1318 71.7602 17.5119C71.1002 17.892 70.7702 18.5351 70.7702 19.4122C70.7702 19.9969 70.8902 20.4355 71.1602 20.7571C71.4002 21.0787 71.7302 21.3126 72.0902 21.4587C72.4502 21.6049 72.8402 21.6926 73.2302 21.7219C73.6202 21.7511 73.9802 21.7803 74.2802 21.7803C74.6402 21.7803 74.9702 21.7511 75.3302 21.6926C75.6902 21.6342 75.9902 21.5757 76.2302 21.5464V17.1026H76.2002Z" fill="#002868"/>
<path d="M83.9399 0.439027C84.7799 0.292847 85.5899 0.234375 86.3699 0.234375C87.1799 0.234375 87.9899 0.292847 88.8299 0.439027V9.356C89.1899 8.74205 89.7599 8.24503 90.5699 7.86497C91.3799 7.4849 92.3099 7.28025 93.3299 7.28025C94.3799 7.28025 95.3399 7.45566 96.2099 7.8065C97.1099 8.15733 97.8599 8.71281 98.5199 9.44371C99.1799 10.1746 99.6599 11.0809 100.05 12.1919C100.41 13.3029 100.59 14.5892 100.59 16.1095C100.59 17.5713 100.35 18.8869 99.8999 20.0271C99.4499 21.1966 98.7599 22.1614 97.8899 22.98C97.0199 23.7986 95.9399 24.4125 94.6799 24.8511C93.4199 25.2896 91.9799 25.5235 90.3899 25.5235C89.8799 25.5235 89.3399 25.4943 88.7699 25.465C88.1999 25.4358 87.6299 25.3481 87.0599 25.2896C86.4899 25.2019 85.9199 25.1142 85.4099 24.9973C84.8699 24.8803 84.3899 24.7341 83.9699 24.5879V0.439027H83.9399ZM88.8299 21.3428C89.0999 21.4305 89.3999 21.4889 89.6999 21.5182C89.9999 21.5474 90.3299 21.5474 90.6599 21.5474C92.1599 21.5474 93.3299 21.1089 94.1999 20.261C95.0399 19.4132 95.4899 18.0683 95.4899 16.2557C95.4899 14.6477 95.2199 13.3906 94.6799 12.572C94.1399 11.7241 93.2399 11.3148 91.9799 11.3148C91.0499 11.3148 90.2999 11.6072 89.6999 12.2211C89.0999 12.8058 88.8299 13.7706 88.8299 15.0278V21.3428Z" fill="#002868"/>
<path d="M104.101 11.3143H101.791C101.731 11.022 101.671 10.7004 101.641 10.3788C101.611 10.0572 101.581 9.73558 101.581 9.44322C101.581 8.82927 101.641 8.24455 101.791 7.65983H108.931V25.1137C108.091 25.2599 107.281 25.3184 106.501 25.3184C105.751 25.3184 104.941 25.2599 104.101 25.1137V11.3143ZM103.381 4.73623C103.231 3.97609 103.171 3.21596 103.171 2.48506C103.171 1.75416 103.231 1.02326 103.381 0.233888C103.771 0.175416 104.191 0.116944 104.641 0.087708C105.091 0.029236 105.511 0 105.871 0C106.261 0 106.681 0.029236 107.161 0.058472C107.611 0.087708 108.061 0.14618 108.451 0.204652C108.511 0.58472 108.571 0.964788 108.601 1.34486C108.631 1.72492 108.631 2.10499 108.631 2.48506C108.631 2.83589 108.631 3.21596 108.601 3.59603C108.571 3.97609 108.541 4.35616 108.451 4.73623C108.061 4.7947 107.641 4.85317 107.191 4.88241C106.741 4.91165 106.321 4.91165 105.931 4.91165C105.571 4.91165 105.151 4.91165 104.671 4.88241C104.191 4.82394 103.771 4.7947 103.381 4.73623Z" fill="#002868"/>
<path d="M112.32 0.439027C113.16 0.292847 113.97 0.234375 114.78 0.234375C115.56 0.234375 116.37 0.292847 117.21 0.439027V18.156C117.21 18.8577 117.24 19.4132 117.33 19.8517C117.42 20.2903 117.54 20.6119 117.72 20.8457C117.9 21.0796 118.11 21.2551 118.41 21.3428C118.68 21.4305 119.04 21.4889 119.46 21.4889C119.64 21.4889 119.85 21.4889 120.06 21.4597C120.27 21.4305 120.48 21.4012 120.69 21.372C120.93 22.3075 121.08 23.1846 121.08 24.0617V24.5587C121.08 24.7049 121.05 24.8803 121.02 25.0557C120.66 25.1727 120.21 25.2604 119.7 25.2896C119.19 25.3481 118.71 25.3481 118.26 25.3481C116.49 25.3481 115.05 24.8803 113.97 23.9155C112.89 22.9507 112.35 21.4012 112.35 19.2378V0.439027H112.32Z" fill="#002868"/>
<path d="M123.33 11.3143H121.02C120.96 11.022 120.9 10.7004 120.87 10.3788C120.84 10.0572 120.81 9.73558 120.81 9.44322C120.81 8.82927 120.87 8.24455 121.02 7.65983H128.16V25.1137C127.32 25.2599 126.51 25.3184 125.73 25.3184C124.98 25.3184 124.17 25.2599 123.33 25.1137V11.3143ZM122.61 4.73623C122.46 3.94686 122.4 3.21596 122.4 2.45582C122.4 1.72492 122.46 0.994024 122.61 0.204652C123 0.14618 123.42 0.087708 123.87 0.058472C124.32 0.029236 124.71 0 125.1 0C125.49 0 125.91 0.029236 126.39 0.058472C126.84 0.087708 127.29 0.14618 127.68 0.204652C127.74 0.58472 127.8 0.964788 127.83 1.34486C127.86 1.72492 127.86 2.10499 127.86 2.48506C127.86 2.83589 127.86 3.21596 127.83 3.59603C127.8 3.97609 127.77 4.35616 127.68 4.73623C127.29 4.7947 126.87 4.85317 126.42 4.88241C125.97 4.91165 125.55 4.91165 125.16 4.91165C124.8 4.91165 124.38 4.91165 123.9 4.88241C123.42 4.82394 123 4.7947 122.61 4.73623Z" fill="#002868"/>
<path d="M130.169 24.7048L138.239 11.344H131.399C131.339 10.9931 131.279 10.6715 131.249 10.3792C131.219 10.0576 131.219 9.73597 131.219 9.44361C131.219 9.15125 131.219 8.85889 131.249 8.59577C131.279 8.30341 131.309 8.01105 131.399 7.68945H145.499L145.679 8.09876L137.459 21.4596H145.079C145.139 21.8104 145.199 22.132 145.229 22.4244C145.259 22.746 145.259 23.0676 145.259 23.3599C145.259 23.6523 145.259 23.9447 145.229 24.2078C145.199 24.5002 145.169 24.7925 145.079 25.1141H130.469L130.169 24.7048Z" fill="#002868"/>
<path d="M150.809 17.8625C150.899 19.2074 151.379 20.2014 152.249 20.7861C153.119 21.4001 154.289 21.6925 155.699 21.6925C156.479 21.6925 157.289 21.634 158.099 21.4586C158.909 21.3124 159.689 21.1077 160.439 20.8446C160.679 21.2832 160.919 21.8386 161.099 22.4526C161.279 23.0958 161.399 23.7682 161.399 24.4699C159.599 25.1423 157.559 25.4931 155.309 25.4931C153.659 25.4931 152.219 25.2592 151.019 24.8207C149.819 24.3822 148.859 23.739 148.109 22.9496C147.359 22.1602 146.819 21.1954 146.459 20.0845C146.099 18.9735 145.919 17.7748 145.919 16.4592C145.919 15.1728 146.099 13.9742 146.459 12.834C146.819 11.723 147.389 10.729 148.109 9.91035C148.829 9.09175 149.729 8.41932 150.809 7.92231C151.889 7.42529 153.149 7.19141 154.559 7.19141C155.819 7.19141 156.929 7.39606 157.889 7.8346C158.849 8.27314 159.689 8.85786 160.379 9.58876C161.069 10.3197 161.579 11.226 161.909 12.2492C162.269 13.2725 162.419 14.3835 162.419 15.5529C162.419 15.9914 162.389 16.4007 162.359 16.81C162.329 17.2193 162.299 17.5702 162.239 17.8041H150.809V17.8625ZM157.859 14.5004C157.799 13.4187 157.499 12.5708 156.929 11.8984C156.359 11.226 155.579 10.9044 154.559 10.9044C153.419 10.9044 152.519 11.226 151.919 11.8399C151.319 12.4831 150.959 13.3602 150.839 14.5004H157.859Z" fill="#002868"/>
<path d="M166.02 11.3143H163.71C163.65 11.022 163.59 10.7004 163.56 10.3788C163.5 10.0572 163.5 9.73558 163.5 9.44322C163.5 8.82927 163.56 8.24455 163.71 7.65983H170.85V25.1137C170.01 25.2599 169.2 25.3184 168.42 25.3184C167.67 25.3184 166.86 25.2599 166.02 25.1137V11.3143ZM165.3 4.73623C165.15 3.97609 165.09 3.21596 165.09 2.48506C165.09 1.75416 165.15 1.02326 165.3 0.233888C165.69 0.175416 166.11 0.116944 166.56 0.087708C167.01 0.029236 167.43 0 167.79 0C168.18 0 168.6 0.029236 169.08 0.058472C169.53 0.087708 169.98 0.14618 170.37 0.204652C170.43 0.58472 170.49 0.964788 170.52 1.34486C170.55 1.72492 170.55 2.10499 170.55 2.48506C170.55 2.83589 170.55 3.21596 170.52 3.59603C170.49 3.97609 170.46 4.35616 170.37 4.73623C169.98 4.7947 169.56 4.85317 169.11 4.88241C168.66 4.91165 168.24 4.91165 167.85 4.91165C167.49 4.91165 167.07 4.91165 166.59 4.88241C166.11 4.82394 165.69 4.7947 165.3 4.73623Z" fill="#002868"/>
<path d="M180 21.8676C180 23.8264 178.38 25.4052 176.37 25.4052C174.36 25.4052 172.74 23.8264 172.74 21.8676C172.74 19.9088 174.36 18.3301 176.37 18.3301C178.38 18.3301 180 19.9088 180 21.8676Z" fill="#04F7F7"/>
</svg>
